# xmcd CD database file
#
# Track frame offsets:
#	150
#	11355
#	24790
#	40050
#	54602
#	69602
#	83370
#	98105
#	113192
#	128205
#	141670
#	156755
#	167232
#	181092
#	195967
#	210125
#
# Disc length: 3002 seconds
#
# Revision: 0
# Processed by: cddbd v1.4PL0 Copyright (c) Steve Scherf et al.
# Submitted via: CDex 1.50Beta7
#
DISCID=c30bb810
DTITLE=Billie Holiday - guest> Louis Armstrong
DYEAR=1900
DGENRE=Jazz
TTITLE0=THEM THERE EYES
TTITLE1=MY MAN
TTITLE2=MY SWEET HUNK O'TRASH
TTITLE3=GOD BLESS THE CHILD
TTITLE4=DO YOUR DUTY
TTITLE5=THERE IS NO GREATER LOVE
TTITLE6=YOU CAN'T LOOSE A BROKEN HEART
TTITLE7=NOW OR NEVER
TTITLE8=KEEPS ON REINING
TTITLE9=LET'S DO IT
TTITLE10=GEORGIA ON MY MIND
TTITLE11=ROMANCE IN THE DARK
TTITLE12=ALL OF ME
TTITLE13=SOLITUDE
TTITLE14=THE MAN I LOVE
TTITLE15=LOVE ME OR LEAVE ME
EXTD=
EXTT0=
EXTT1=
EXTT2=
EXTT3=
EXTT4=
EXTT5=
EXTT6=
EXTT7=
EXTT8=
EXTT9=
EXTT10=
EXTT11=
EXTT12=
EXTT13=
EXTT14=
EXTT15=
PLAYORDER=
